<svg xmlns="http://www.w3.org/2000/svg" xmlns:xlink="http://www.w3.org/1999/xlink" xmlns:lucid="lucid" width="779.54" height="580"><g transform="translate(-160 -80)" lucid:page-tab-id="0_0"><path d="M300 106c0-3.3 2.7-6 6-6h128c3.3 0 6 2.7 6 6v88c0 3.3-2.7 6-6 6H306c-3.3 0-6-2.7-6-6z" stroke="#5e5e5e" stroke-width="3" fill="#fff"/><use xlink:href="#a" transform="matrix(1,0,0,1,312,112) translate(34.574074074074076 29.65277777777778)"/><use xlink:href="#b" transform="matrix(1,0,0,1,312,112) translate(24.79012345679012 56.31944444444445)"/><path d="M560 106c0-3.3 2.7-6 6-6h128c3.3 0 6 2.7 6 6v88c0 3.3-2.7 6-6 6H566c-3.3 0-6-2.7-6-6z" stroke="#5e5e5e" stroke-width="3" fill="#fff"/><use xlink:href="#c" transform="matrix(1,0,0,1,572,112) translate(4.481481481481481 29.65277777777778)"/><use xlink:href="#d" transform="matrix(1,0,0,1,572,112) translate(56.148148148148145 29.65277777777778)"/><use xlink:href="#e" transform="matrix(1,0,0,1,572,112) translate(35.839506172839506 56.31944444444445)"/><path d="M540 290.67c0-3.32 2.7-6 6-6h168c3.3 0 6 2.68 6 6V394c0 3.3-2.7 6-6 6H546c-3.3 0-6-2.7-6-6z" stroke="#5e5e5e" stroke-width="3" fill="#fff"/><use xlink:href="#f" transform="matrix(1,0,0,1,552,296.6666666666667) translate(9.666666666666671 23.52777777777778)"/><use xlink:href="#g" transform="matrix(1,0,0,1,552,296.6666666666667) translate(66.27160493827161 23.52777777777778)"/><use xlink:href="#h" transform="matrix(1,0,0,1,552,296.6666666666667) translate(140.1604938271605 23.52777777777778)"/><use xlink:href="#i" transform="matrix(1,0,0,1,552,296.6666666666667) translate(50.25308641975309 50.19444444444445)"/><use xlink:href="#j" transform="matrix(1,0,0,1,552,296.6666666666667) translate(30.56172839506172 76.86111111111111)"/><path d="M520 590c0 27.6-22.4 50-50 50s-50-22.4-50-50 22.4-50 50-50 50 22.4 50 50z" stroke="#5e5e5e" stroke-width="3" fill="#fff"/><use xlink:href="#k" transform="matrix(1,0,0,1,425,545) translate(12.962962962962969 48.71527777777778)"/><path d="M840 590c0 27.6-22.4 50-50 50s-50-22.4-50-50 22.4-50 50-50 50 22.4 50 50z" stroke="#5e5e5e" stroke-width="3" fill="#fff"/><use xlink:href="#l" transform="matrix(1,0,0,1,745,545) translate(32.067901234567906 48.71527777777778)"/><path d="M624.3 521.9c3.15-1.05 8.25-1.05 11.4 0l68.6 22.87c3.15 1.05 3.15 2.75 0 3.8l-68.6 22.87c-3.15 1.04-8.25 1.04-11.4 0l-68.6-22.88c-3.15-1.04-3.15-2.74 0-3.8z" stroke="#5e5e5e" stroke-width="3" fill="#fff"/><use xlink:href="#m" transform="matrix(1,0,0,1,555,525) translate(44.78895061728395 26.02777777777778)"/><path d="M471.1 495.72l-.1.4v41.38h-2v-41.63l.92-3.42 1.2-1.18zm116.9-11.6l-.92 3.43-2.53 2.53-2.33.63v-2.07l1.3-.34 1.76-1.8.72-2.63V420h2z" stroke="#5e5e5e" stroke-width=".05" fill="#5e5e5e"/><path d="M471 538.55l-1-.05-1 .03v-1.06h2z" fill="#5e5e5e"/><path d="M471.02 538.57l-1-.05-1.04.04v-1.1h2.04zm-2-1.07v1l1-.03.96.05v-1.02z" stroke="#5e5e5e" stroke-width=".05" fill="#5e5e5e"/><path d="M591.63 419h-9.27l4.64-14.26z" fill="#5e5e5e"/><path d="M593 420h-12l6-18.5zm-9.26-2h6.52L587 407.97z" stroke="#5e5e5e" stroke-width=".05" fill="#5e5e5e"/><use xlink:href="#n" transform="matrix(1,0,0,1,471.1111111111111,479.3333333333333) translate(0 14.222222222222223)"/><use xlink:href="#o" transform="matrix(1,0,0,1,471.1111111111111,479.3333333333333) translate(52.88888888888889 14.222222222222223)"/><path d="M787.55 489.92l2.53 2.53.92 3.42v41.63h-2v-41.37l-.7-2.64-.97-.96v-2.67zM674 479.32v9.3l-1.08-1.07-.92-3.42V420h2z" stroke="#5e5e5e" stroke-width=".05" fill="#5e5e5e"/><path d="M791 538.55l-1-.05-1 .03v-1.06h2z" fill="#5e5e5e"/><path d="M791.02 538.57l-1-.05-1.04.04v-1.1H791zm-2-1.07v1l1-.03.96.05v-1.02z" stroke="#5e5e5e" stroke-width=".05" fill="#5e5e5e"/><path d="M677.64 419h-9.27l4.63-14.26z" fill="#5e5e5e"/><path d="M679 420h-12l6-18.5zm-9.26-2h6.52L673 407.97z" stroke="#5e5e5e" stroke-width=".05" fill="#5e5e5e"/><use xlink:href="#p" transform="matrix(1,0,0,1,674,479.3333333333333) translate(0 14.222222222222223)"/><use xlink:href="#o" transform="matrix(1,0,0,1,674,479.3333333333333) translate(55.111111111111114 14.222222222222223)"/><path d="M631 501.24h-2v-19.3h2zm0-40.64h-2v-58.1h2z" stroke="#5e5e5e" stroke-width=".05" fill="#5e5e5e"/><path d="M631 402.53h-2v-1.03h2z" fill="#5e5e5e"/><path d="M631.02 402.55H629v-1.07H631zm-2-1.03v.98H631v-.98z" stroke="#5e5e5e" stroke-width=".05" fill="#5e5e5e"/><path d="M630 516.5l-4.64-14.26h9.28z" fill="#5e5e5e"/><path d="M630 519.74l-6-18.5h12zm-3.26-16.5l3.26 10.03 3.26-10.03z" stroke="#5e5e5e" stroke-width=".05" fill="#5e5e5e"/><use xlink:href="#q" transform="matrix(1,0,0,1,603.4320987654321,460.603486098457) translate(0 14.222222222222223)"/><path d="M442.5 150H540" stroke="#5e5e5e" stroke-width="2" fill="none"/><path d="M442.53 151h-1.03v-2h1.03z" stroke="#5e5e5e" stroke-width=".05" fill="#5e5e5e"/><path d="M555.26 150L541 154.64v-9.28z" stroke="#5e5e5e" stroke-width="2" fill="#5e5e5e"/><use xlink:href="#r" transform="matrix(1,0,0,1,450.96296296296293,124.66666666666667) translate(0 14.222222222222223)"/><use xlink:href="#s" transform="matrix(1,0,0,1,458.4691358024691,154) translate(0 14.222222222222223)"/><path d="M631 264.66h-2V256h2zm0-51.33h-2V202.5h2z" stroke="#5e5e5e" stroke-width=".05" fill="#5e5e5e"/><path d="M631 202.53h-2v-1.03h2z" fill="#5e5e5e"/><path d="M631.02 202.55H629v-1.08H631zm-2-1.03v.98H631v-.97z" stroke="#5e5e5e" stroke-width=".05" fill="#5e5e5e"/><path d="M630 279.93l-4.64-14.27h9.28z" fill="#5e5e5e"/><path d="M630 283.17l-6-18.5h12zm-3.26-16.5l3.26 10.02 3.26-10.04z" stroke="#5e5e5e" stroke-width=".05" fill="#5e5e5e"/><use xlink:href="#t" transform="matrix(1,0,0,1,587.6296296296296,213.33333333333331) translate(0.005000000000002558 14.222222222222223)"/><use xlink:href="#u" transform="matrix(1,0,0,1,587.6296296296296,213.33333333333331) translate(12.375370370370373 35.55555555555556)"/><path d="M510.63 289l3.42.92 2.53 2.53.92 3.42v42.77l.8 1.9 2.08.87-.76 1.86-2.86-1.2-1.26-3.03v-42.9l-.7-2.64-1.8-1.8-2.63-.7h-9.26v-2zM371 268.67h-2V220h2z" stroke="#5e5e5e" stroke-width=".05" fill="#5e5e5e"/><path d="M374.64 219h-9.28l4.64-14.26z" fill="#5e5e5e"/><path d="M376 220h-12l6-18.5zm-9.26-2h6.52L370 207.97z" stroke="#5e5e5e" stroke-width=".05" fill="#5e5e5e"/><path d="M535.26 342.33L521 346.97v-9.27z" fill="#5e5e5e"/><path d="M538.5 342.33l-18.5 6.02v-12.03zM522 345.6l10.03-3.27-10.03-3.26z" stroke="#5e5e5e" stroke-width=".05" fill="#5e5e5e"/><use xlink:href="#v" transform="matrix(1,0,0,1,322.88888888888886,268.6666666666667) translate(0 14.222222222222223)"/><use xlink:href="#w" transform="matrix(1,0,0,1,322.88888888888886,268.6666666666667) translate(78.41975308641975 14.222222222222223)"/><use xlink:href="#x" transform="matrix(1,0,0,1,322.88888888888886,268.6666666666667) translate(0 35.55555555555556)"/><use xlink:href="#y" transform="matrix(1,0,0,1,322.88888888888886,268.6666666666667) translate(63.012345679012356 35.55555555555556)"/><use xlink:href="#z" transform="matrix(1,0,0,1,322.88888888888886,268.6666666666667) translate(119.2098765432099 35.55555555555556)"/><path d="M204 444c-13.25 0-24-10.75-24-24 0-10.6 6.5-19.55 16.58-22.83C196 366 236 360 252 372c8-18 48-12 48 6 24-6 48 18 32 48 16 24 0 54-32 42-8 15.6-40 15.6-48 0-16 12-48 6-48-24z" stroke="#5e5e5e" stroke-width="3" fill="#fff"/><use xlink:href="#A" transform="matrix(1,0,0,1,185,365) translate(49.26425925925926 45.27777777777778)"/><use xlink:href="#B" transform="matrix(1,0,0,1,185,365) translate(50.35067901234568 71.94444444444446)"/><path d="M277.4 341.27h-2v-2.96h2zm0-6.92h-2v-5.92h2zm0-9.87h-2v-5.93h2zm0-9.88h-2v-5.93h2zm0-9.88h-2v-5.92h2zm0-9.87h-2v-5.93h2zm0-9.88h-2v-5.93h2zm0-9.88h-2v-5.93h2zm0-9.88h-2v-5.93h2zm0-9.88h-2v-5.93h2zm0-9.88h-2v-5.92h2zm0-9.87h-2v-5.94h2zm0-9.9h-2v-5.92h2zm0-9.87h-2v-5.92h2zm0-9.87h-2v-5.93h2zm0-9.88h-2v-5.93h2zm0-9.88h-2v-5.92h2zm0-9.87h-2v-5.93h2zm0-9.88h-2v-5.93h2zm2.98-15.53l-2.17.9-.8 2v2.75h-2v-3.16l1.28-3.1 2.94-1.22z" stroke="#5e5e5e" stroke-width=".05" fill="#5e5e5e"/><path d="M295.26 150L281 154.64v-9.28z" fill="#fff"/><path d="M298.5 150l-18.5 6v-12zm-16.5 3.26l10.03-3.26-10.03-3.26z" stroke="#5e5e5e" stroke-width=".05" fill="#5e5e5e"/><path d="M276.4 356.53l-4.65-14.26h9.27z" fill="#5e5e5e"/><path d="M276.4 359.77l-6.02-18.5h12.02zm-3.27-16.5l3.26 10.03 3.25-10.03zM357.63 421.2h-2.94v-2h2.93zm9.8 0h-5.9v-2h5.9zm9.77 0h-5.87v-2h5.87zm9.8 0h-5.88v-2H387zm9.78 0h-5.88v-2h5.88zm9.78 0h-5.87v-2h5.86zm9.8 0h-5.88v-2h5.87zm9.78 0h-5.87v-2h5.87zm9.78 0h-5.87v-2h5.87zm9.8 0h-5.88v-2h5.87zm9.78 0h-5.87v-2h5.87zm9.8 0h-5.9v-2h5.9zm9.77 0h-5.87v-2h5.87zm9.8-.77l-2.8.77h-3.08v-2h2.8l2.56-.7zm4.05-6.1l-.76 2.83-1.93-.52.7-2.57v-2.7h2zm0-6.72h-2v-5.63h2zm0-9.4h-2v-5.64h2zm0-9.4h-2v-5.65h2zm0-9.42h-2v-5.64h2zm0-9.4h-2v-5.65h2zm0-9.4h-2v-5.66h2zm.7-14.68l-.7 2.57v2.7h-2v-2.97l.77-2.83zm6.9-2.57h-2.46l-2.57.7-.54-1.93 2.83-.77h2.73zm8.7 0h-5.2v-2h5.2zm8.7 0h-5.22v-2h5.2zm6.08 0h-2.6v-2h2.6z" stroke="#5e5e5e" stroke-width=".05" fill="#5e5e5e"/><path d="M353.7 424.83l-14.27-4.63 14.26-4.64z" fill="#5e5e5e"/><path d="M354.7 426.2l-18.5-6 18.5-6zm-12.04-6l10.03 3.26v-6.52z" stroke="#5e5e5e" stroke-width=".05" fill="#5e5e5e"/><path d="M535.26 342.33L521 346.97v-9.27z" fill="#fff"/><path d="M538.5 342.33l-18.5 6.02v-12.03zM522 345.6l10.03-3.27-10.03-3.26z" stroke="#5e5e5e" stroke-width=".05" fill="#5e5e5e"/><path d="M720 590h-60.67c-3.32 0-6-2.7-6-6v-15.86" stroke="#5e5e5e" stroke-width="2" fill="none"/><path d="M735.26 590L721 594.64v-9.28z" stroke="#5e5e5e" stroke-width="2" fill="#5e5e5e"/><path d="M654.33 568.16h-2v-.7l2-.65z" stroke="#5e5e5e" stroke-width=".05" fill="#5e5e5e"/><path d="M540 590h60.67c3.32 0 6-2.7 6-6v-15.86" stroke="#5e5e5e" stroke-width="2" fill="none"/><path d="M524.74 590l14.26-4.64v9.28z" stroke="#5e5e5e" stroke-width="2" fill="#5e5e5e"/><path d="M607.67 567.47v.7h-2v-1.36zM861 336.47l-.92 3.4-2.53 2.54-3.42.93H835v-2h18.87l2.64-.7 1.8-1.8.7-2.63v-19.9h2zm-45 6.86h-38v-2h38zm-57 0h-19v-2h19zm102-47.07h-2V257.5h2zm0-81.43h-2v-18.76h2zm-3.45-64.9l2.53 2.52.92 3.42v20.17h-2v-19.9l-.7-2.65-1.8-1.8-2.63-.7h-16.7v-2h16.96zM719.33 151H702.5v-2h16.83zm50.5 0h-33.66v-2h33.66zm50.5 0h-33.66v-2h33.66z" stroke="#5e5e5e" stroke-width=".05" fill="#5e5e5e"/><path d="M702.53 151h-1.03v-2h1.03z" fill="#5e5e5e"/><path d="M702.55 151.03h-1.07v-2.06h1.07zm-1.02-2v1.94h.97v-1.94z" stroke="#5e5e5e" stroke-width=".05" fill="#5e5e5e"/><path d="M739 346.97l-14.26-4.64L739 337.7z" fill="#5e5e5e"/><path d="M740 348.35l-18.5-6.02 18.5-6zm-12.03-6.02L738 345.6v-6.53z" stroke="#5e5e5e" stroke-width=".05" fill="#5e5e5e"/><g><use xlink:href="#C" transform="matrix(1,0,0,1,791.4567901234568,214.83333333333331) translate(0.0049999999999954525 14.222222222222223)"/><use xlink:href="#D" transform="matrix(1,0,0,1,791.4567901234568,214.83333333333331) translate(54.32598765432099 14.222222222222223)"/><use xlink:href="#E" transform="matrix(1,0,0,1,791.4567901234568,214.83333333333331) translate(38.54820987654321 35.55555555555556)"/></g><defs><path fill="#333" d="M194 0L95-120 63-95V0H30v-248h33v124l119-124h40L117-140 236 0h-42" id="F"/><path fill="#333" d="M141-36C126-15 110 5 73 4 37 3 15-17 15-53c-1-64 63-63 125-63 3-35-9-54-41-54-24 1-41 7-42 31l-33-3c5-37 33-52 76-52 45 0 72 20 72 64v82c-1 20 7 32 28 27v20c-31 9-61-2-59-35zM48-53c0 20 12 33 32 33 41-3 63-29 60-74-43 2-92-5-92 41" id="G"/><path fill="#333" d="M114-163C36-179 61-72 57 0H25l-1-190h30c1 12-1 29 2 39 6-27 23-49 58-41v29" id="H"/><g id="a"><use transform="matrix(0.06172839506172839,0,0,0.06172839506172839,0,0)" xlink:href="#F"/><use transform="matrix(0.06172839506172839,0,0,0.06172839506172839,14.814814814814813,0)" xlink:href="#G"/><use transform="matrix(0.06172839506172839,0,0,0.06172839506172839,27.160493827160494,0)" xlink:href="#H"/><use transform="matrix(0.06172839506172839,0,0,0.06172839506172839,34.50617283950617,0)" xlink:href="#G"/></g><path fill="#333" d="M87 75C49 33 22-17 22-94c0-76 28-126 65-167h31c-38 41-64 92-64 168S80 34 118 75H87" id="I"/><path fill="#333" d="M96-169c-40 0-48 33-48 73s9 75 48 75c24 0 41-14 43-38l32 2c-6 37-31 61-74 61-59 0-76-41-82-99-10-93 101-131 147-64 4 7 5 14 7 22l-32 3c-4-21-16-35-41-35" id="J"/><path fill="#333" d="M24 0v-261h32V0H24" id="K"/><path fill="#333" d="M24-231v-30h32v30H24zM24 0v-190h32V0H24" id="L"/><path fill="#333" d="M100-194c63 0 86 42 84 106H49c0 40 14 67 53 68 26 1 43-12 49-29l28 8c-11 28-37 45-77 45C44 4 14-33 15-96c1-61 26-98 85-98zm52 81c6-60-76-77-97-28-3 7-6 17-6 28h103" id="M"/><path fill="#333" d="M117-194c89-4 53 116 60 194h-32v-121c0-31-8-49-39-48C34-167 62-67 57 0H25l-1-190h30c1 10-1 24 2 32 11-22 29-35 61-36" id="N"/><path fill="#333" d="M59-47c-2 24 18 29 38 22v24C64 9 27 4 27-40v-127H5v-23h24l9-43h21v43h35v23H59v120" id="O"/><path fill="#333" d="M33-261c38 41 65 92 65 168S71 34 33 75H2C39 34 66-17 66-93S39-220 2-261h31" id="P"/><g id="b"><use transform="matrix(0.06172839506172839,0,0,0.06172839506172839,0,0)" xlink:href="#I"/><use transform="matrix(0.06172839506172839,0,0,0.06172839506172839,7.345679012345679,0)" xlink:href="#J"/><use transform="matrix(0.06172839506172839,0,0,0.06172839506172839,18.45679012345679,0)" xlink:href="#K"/><use transform="matrix(0.06172839506172839,0,0,0.06172839506172839,23.333333333333336,0)" xlink:href="#L"/><use transform="matrix(0.06172839506172839,0,0,0.06172839506172839,28.20987654320988,0)" xlink:href="#M"/><use transform="matrix(0.06172839506172839,0,0,0.06172839506172839,40.55555555555556,0)" xlink:href="#N"/><use transform="matrix(0.06172839506172839,0,0,0.06172839506172839,52.901234567901234,0)" xlink:href="#O"/><use transform="matrix(0.06172839506172839,0,0,0.06172839506172839,59.074074074074076,0)" xlink:href="#P"/></g><path fill="#333" d="M137-103V0h-34v-103L8-248h37l75 118 75-118h37" id="Q"/><path fill="#333" d="M210-169c-67 3-38 105-44 169h-31v-121c0-29-5-50-35-48C34-165 62-65 56 0H25l-1-190h30c1 10-1 24 2 32 10-44 99-50 107 0 11-21 27-35 58-36 85-2 47 119 55 194h-31v-121c0-29-5-49-35-48" id="R"/><g id="c"><use transform="matrix(0.06172839506172839,0,0,0.06172839506172839,0,0)" xlink:href="#Q"/><use transform="matrix(0.06172839506172839,0,0,0.06172839506172839,14.814814814814813,0)" xlink:href="#R"/><use transform="matrix(0.06172839506172839,0,0,0.06172839506172839,33.2716049382716,0)" xlink:href="#L"/><use transform="matrix(0.06172839506172839,0,0,0.06172839506172839,38.148148148148145,0)" xlink:href="#H"/></g><g id="d"><use transform="matrix(0.06172839506172839,0,0,0.06172839506172839,0,0)" xlink:href="#I"/><use transform="matrix(0.06172839506172839,0,0,0.06172839506172839,7.345679012345679,0)" xlink:href="#R"/><use transform="matrix(0.06172839506172839,0,0,0.06172839506172839,25.80246913580247,0)" xlink:href="#G"/><use transform="matrix(0.06172839506172839,0,0,0.06172839506172839,38.148148148148145,0)" xlink:href="#L"/><use transform="matrix(0.06172839506172839,0,0,0.06172839506172839,43.02469135802469,0)" xlink:href="#N"/></g><path fill="#333" d="M135-143c-3-34-86-38-87 0 15 53 115 12 119 90S17 21 10-45l28-5c4 36 97 45 98 0-10-56-113-15-118-90-4-57 82-63 122-42 12 7 21 19 24 35" id="S"/><g id="e"><use transform="matrix(0.06172839506172839,0,0,0.06172839506172839,0,0)" xlink:href="#H"/><use transform="matrix(0.06172839506172839,0,0,0.06172839506172839,7.345679012345679,0)" xlink:href="#M"/><use transform="matrix(0.06172839506172839,0,0,0.06172839506172839,19.691358024691358,0)" xlink:href="#S"/><use transform="matrix(0.06172839506172839,0,0,0.06172839506172839,30.80246913580247,0)" xlink:href="#O"/><use transform="matrix(0.06172839506172839,0,0,0.06172839506172839,36.97530864197531,0)" xlink:href="#P"/></g><path fill="#333" d="M197 0v-115H63V0H30v-248h33v105h134v-105h34V0h-34" id="T"/><path fill="#333" d="M177-190C167-65 218 103 67 71c-23-6-38-20-44-43l32-5c15 47 100 32 89-28v-30C133-14 115 1 83 1 29 1 15-40 15-95c0-56 16-97 71-98 29-1 48 16 59 35 1-10 0-23 2-32h30zM94-22c36 0 50-32 50-73 0-42-14-75-50-75-39 0-46 34-46 75s6 73 46 73" id="U"/><g id="f"><use transform="matrix(0.06172839506172839,0,0,0.06172839506172839,0,0)" xlink:href="#T"/><use transform="matrix(0.06172839506172839,0,0,0.06172839506172839,15.987654320987653,0)" xlink:href="#M"/><use transform="matrix(0.06172839506172839,0,0,0.06172839506172839,28.333333333333332,0)" xlink:href="#K"/><use transform="matrix(0.06172839506172839,0,0,0.06172839506172839,33.20987654320987,0)" xlink:href="#U"/><use transform="matrix(0.06172839506172839,0,0,0.06172839506172839,45.55555555555555,0)" xlink:href="#L"/></g><path fill="#333" d="M85-194c31 0 48 13 60 33l-1-100h32l1 261h-30c-2-10 0-23-3-31C134-8 116 4 85 4 32 4 16-35 15-94c0-66 23-100 70-100zm9 24c-40 0-46 34-46 75 0 40 6 74 45 74 42 0 51-32 51-76 0-42-9-74-50-73" id="V"/><g id="g"><use transform="matrix(0.06172839506172839,0,0,0.06172839506172839,0,0)" xlink:href="#I"/><use transform="matrix(0.06172839506172839,0,0,0.06172839506172839,7.345679012345679,0)" xlink:href="#R"/><use transform="matrix(0.06172839506172839,0,0,0.06172839506172839,25.80246913580247,0)" xlink:href="#M"/><use transform="matrix(0.06172839506172839,0,0,0.06172839506172839,38.148148148148145,0)" xlink:href="#V"/><use transform="matrix(0.06172839506172839,0,0,0.06172839506172839,50.49382716049382,0)" xlink:href="#L"/><use transform="matrix(0.06172839506172839,0,0,0.06172839506172839,55.37037037037037,0)" xlink:href="#G"/></g><path fill="#333" d="M0 4l72-265h28L28 4H0" id="W"/><use transform="matrix(0.06172839506172839,0,0,0.06172839506172839,0,0)" xlink:href="#W" id="h"/><g id="i"><use transform="matrix(0.06172839506172839,0,0,0.06172839506172839,0,0)" xlink:href="#U"/><use transform="matrix(0.06172839506172839,0,0,0.06172839506172839,12.345679012345679,0)" xlink:href="#G"/><use transform="matrix(0.06172839506172839,0,0,0.06172839506172839,24.691358024691358,0)" xlink:href="#R"/><use transform="matrix(0.06172839506172839,0,0,0.06172839506172839,43.148148148148145,0)" xlink:href="#M"/></g><g id="j"><use transform="matrix(0.06172839506172839,0,0,0.06172839506172839,0,0)" xlink:href="#R"/><use transform="matrix(0.06172839506172839,0,0,0.06172839506172839,18.456790123456788,0)" xlink:href="#G"/><use transform="matrix(0.06172839506172839,0,0,0.06172839506172839,30.80246913580247,0)" xlink:href="#N"/><use transform="matrix(0.06172839506172839,0,0,0.06172839506172839,43.148148148148145,0)" xlink:href="#G"/><use transform="matrix(0.06172839506172839,0,0,0.06172839506172839,55.49382716049382,0)" xlink:href="#U"/><use transform="matrix(0.06172839506172839,0,0,0.06172839506172839,67.8395061728395,0)" xlink:href="#M"/><use transform="matrix(0.06172839506172839,0,0,0.06172839506172839,80.18518518518519,0)" xlink:href="#H"/><use transform="matrix(0.06172839506172839,0,0,0.06172839506172839,87.53086419753087,0)" xlink:href="#P"/></g><path fill="#333" d="M185-189c-5-48-123-54-124 2 14 75 158 14 163 119 3 78-121 87-175 55-17-10-28-26-33-46l33-7c5 56 141 63 141-1 0-78-155-14-162-118-5-82 145-84 179-34 5 7 8 16 11 25" id="X"/><path fill="#333" d="M84 4C-5 8 30-112 23-190h32v120c0 31 7 50 39 49 72-2 45-101 50-169h31l1 190h-30c-1-10 1-25-2-33-11 22-28 36-60 37" id="Y"/><g id="k"><use transform="matrix(0.06172839506172839,0,0,0.06172839506172839,0,0)" xlink:href="#X"/><use transform="matrix(0.06172839506172839,0,0,0.06172839506172839,14.814814814814813,0)" xlink:href="#L"/><use transform="matrix(0.06172839506172839,0,0,0.06172839506172839,19.691358024691354,0)" xlink:href="#U"/><use transform="matrix(0.06172839506172839,0,0,0.06172839506172839,32.03703703703703,0)" xlink:href="#H"/><use transform="matrix(0.06172839506172839,0,0,0.06172839506172839,39.38271604938271,0)" xlink:href="#Y"/><use transform="matrix(0.06172839506172839,0,0,0.06172839506172839,51.728395061728385,0)" xlink:href="#N"/></g><path fill="#333" d="M101-234c-31-9-42 10-38 44h38v23H63V0H32v-167H5v-23h27c-7-52 17-82 69-68v24" id="Z"/><g id="l"><use transform="matrix(0.06172839506172839,0,0,0.06172839506172839,0,0)" xlink:href="#X"/><use transform="matrix(0.06172839506172839,0,0,0.06172839506172839,14.814814814814813,0)" xlink:href="#L"/><use transform="matrix(0.06172839506172839,0,0,0.06172839506172839,19.691358024691354,0)" xlink:href="#Z"/></g><path fill="#333" d="M143 4C61 4 22-44 18-125c-5-107 100-154 193-111 17 8 29 25 37 43l-32 9c-13-25-37-40-76-40-61 0-88 39-88 99 0 61 29 100 91 101 35 0 62-11 79-27v-45h-74v-28h105v86C228-13 192 4 143 4" id="aa"/><g id="m"><use transform="matrix(0.06172839506172839,0,0,0.06172839506172839,0,0)" xlink:href="#aa"/><use transform="matrix(0.06172839506172839,0,0,0.06172839506172839,17.28395061728395,0)" xlink:href="#G"/><use transform="matrix(0.06172839506172839,0,0,0.06172839506172839,29.629629629629626,0)" xlink:href="#R"/><use transform="matrix(0.06172839506172839,0,0,0.06172839506172839,48.08641975308642,0)" xlink:href="#M"/></g><path fill="#333" d="M147 0H94L2-248h55l64 206c17-72 42-137 63-206h54" id="ab"/><path fill="#333" d="M25-224v-37h50v37H25zM25 0v-190h50V0H25" id="ac"/><path fill="#333" d="M88-194c31-1 46 15 58 34l-1-101h50l1 261h-48c-2-10 0-23-3-31C134-8 116 4 84 4 32 4 16-41 15-95c0-56 19-97 73-99zm17 164c33 0 40-30 41-66 1-37-9-64-41-64s-38 30-39 65c0 43 13 65 39 65" id="ad"/><path fill="#333" d="M185-48c-13 30-37 53-82 52C43 2 14-33 14-96s30-98 90-98c62 0 83 45 84 108H66c0 31 8 55 39 56 18 0 30-7 34-22zm-45-69c5-46-57-63-70-21-2 6-4 13-4 21h74" id="ae"/><path fill="#333" d="M110-194c64 0 96 36 96 99 0 64-35 99-97 99-61 0-95-36-95-99 0-62 34-99 96-99zm-1 164c35 0 45-28 45-65 0-40-10-65-43-65-34 0-45 26-45 65 0 36 10 65 43 65" id="af"/><g id="n"><use transform="matrix(0.04938271604938272,0,0,0.04938271604938272,0,0)" xlink:href="#ab"/><use transform="matrix(0.04938271604938272,0,0,0.04938271604938272,11.506172839506174,0)" xlink:href="#ac"/><use transform="matrix(0.04938271604938272,0,0,0.04938271604938272,16.444444444444446,0)" xlink:href="#ad"/><use transform="matrix(0.04938271604938272,0,0,0.04938271604938272,27.259259259259263,0)" xlink:href="#ae"/><use transform="matrix(0.04938271604938272,0,0,0.04938271604938272,37.135802469135804,0)" xlink:href="#af"/></g><path fill="#333" d="M121-226c-27-7-43 5-38 36h38v33H83V0H34v-157H6v-33h28c-9-59 32-81 87-68v32" id="ag"/><path fill="#333" d="M135-150c-39-12-60 13-60 57V0H25l-1-190h47c2 13-1 29 3 40 6-28 27-53 61-41v41" id="ah"/><path fill="#333" d="M133-34C117-15 103 5 69 4 32 3 11-16 11-54c-1-60 55-63 116-61 1-26-3-47-28-47-18 1-26 9-28 27l-52-2c7-38 36-58 82-57s74 22 75 68l1 82c-1 14 12 18 25 15v27c-30 8-71 5-69-32zm-48 3c29 0 43-24 42-57-32 0-66-3-65 30 0 17 8 27 23 27" id="ai"/><path fill="#333" d="M220-157c-53 9-28 100-34 157h-49v-107c1-27-5-49-29-50C55-147 81-57 75 0H25l-1-190h47c2 12-1 28 3 38 10-53 101-56 108 0 13-22 24-43 59-42 82 1 51 116 57 194h-49v-107c-1-25-5-48-29-50" id="aj"/><path fill="#333" d="M137-138c1-29-70-34-71-4 15 46 118 7 119 86 1 83-164 76-172 9l43-7c4 19 20 25 44 25 33 8 57-30 24-41C81-84 22-81 20-136c-2-80 154-74 161-7" id="ak"/><g id="o"><use transform="matrix(0.04938271604938272,0,0,0.04938271604938272,0,0)" xlink:href="#ag"/><use transform="matrix(0.04938271604938272,0,0,0.04938271604938272,5.8765432098765435,0)" xlink:href="#ah"/><use transform="matrix(0.04938271604938272,0,0,0.04938271604938272,12.790123456790125,0)" xlink:href="#ai"/><use transform="matrix(0.04938271604938272,0,0,0.04938271604938272,22.666666666666668,0)" xlink:href="#aj"/><use transform="matrix(0.04938271604938272,0,0,0.04938271604938272,38.46913580246914,0)" xlink:href="#ae"/><use transform="matrix(0.04938271604938272,0,0,0.04938271604938272,48.345679012345684,0)" xlink:href="#ak"/></g><path fill="#333" d="M199 0l-22-63H83L61 0H9l90-248h61L250 0h-51zm-33-102l-36-108c-10 38-24 72-36 108h72" id="al"/><path fill="#333" d="M85 4C-2 5 27-109 22-190h50c7 57-23 150 33 157 60-5 35-97 40-157h50l1 190h-47c-2-12 1-28-3-38-12 25-28 42-61 42" id="am"/><g id="p"><use transform="matrix(0.04938271604938272,0,0,0.04938271604938272,0,0)" xlink:href="#al"/><use transform="matrix(0.04938271604938272,0,0,0.04938271604938272,12.790123456790125,0)" xlink:href="#am"/><use transform="matrix(0.04938271604938272,0,0,0.04938271604938272,23.60493827160494,0)" xlink:href="#ad"/><use transform="matrix(0.04938271604938272,0,0,0.04938271604938272,34.41975308641975,0)" xlink:href="#ac"/><use transform="matrix(0.04938271604938272,0,0,0.04938271604938272,39.358024691358025,0)" xlink:href="#af"/></g><path fill="#333" d="M24 0v-248h52V0H24" id="an"/><path fill="#333" d="M135-194c87-1 58 113 63 194h-50c-7-57 23-157-34-157-59 0-34 97-39 157H25l-1-190h47c2 12-1 28 3 38 12-26 28-41 61-42" id="ao"/><path fill="#333" d="M135-194c53 0 70 44 70 98 0 56-19 98-73 100-31 1-45-17-59-34 3 33 2 69 2 105H25l-1-265h48c2 10 0 23 3 31 11-24 29-35 60-35zM114-30c33 0 39-31 40-66 0-38-9-64-40-64-56 0-55 130 0 130" id="ap"/><path fill="#333" d="M115-3C79 11 28 4 28-45v-112H4v-33h27l15-45h31v45h36v33H77v99c-1 23 16 31 38 25v30" id="aq"/><g id="q"><use transform="matrix(0.04938271604938272,0,0,0.04938271604938272,0,0)" xlink:href="#an"/><use transform="matrix(0.04938271604938272,0,0,0.04938271604938272,4.938271604938272,0)" xlink:href="#ao"/><use transform="matrix(0.04938271604938272,0,0,0.04938271604938272,15.753086419753087,0)" xlink:href="#ap"/><use transform="matrix(0.04938271604938272,0,0,0.04938271604938272,26.567901234567902,0)" xlink:href="#am"/><use transform="matrix(0.04938271604938272,0,0,0.04938271604938272,37.382716049382715,0)" xlink:href="#aq"/><use transform="matrix(0.04938271604938272,0,0,0.04938271604938272,43.25925925925926,0)" xlink:href="#ak"/></g><path fill="#333" d="M169-182c-1-43-94-46-97-3 18 66 151 10 154 114 3 95-165 93-204 36-6-8-10-19-12-30l50-8c3 46 112 56 116 5-17-69-150-10-154-114-4-87 153-88 188-35 5 8 8 18 10 28" id="ar"/><path fill="#333" d="M195-6C206 82 75 100 31 46c-4-6-6-13-8-21l49-6c3 16 16 24 34 25 40 0 42-37 40-79-11 22-30 35-61 35-53 0-70-43-70-97 0-56 18-96 73-97 30 0 46 14 59 34l2-30h47zm-90-29c32 0 41-27 41-63 0-35-9-62-40-62-32 0-39 29-40 63 0 36 9 62 39 62" id="as"/><path fill="#333" d="M25 0v-261h50V0H25" id="at"/><g id="r"><use transform="matrix(0.04938271604938272,0,0,0.04938271604938272,0,0)" xlink:href="#ar"/><use transform="matrix(0.04938271604938272,0,0,0.04938271604938272,11.851851851851853,0)" xlink:href="#ac"/><use transform="matrix(0.04938271604938272,0,0,0.04938271604938272,16.790123456790127,0)" xlink:href="#as"/><use transform="matrix(0.04938271604938272,0,0,0.04938271604938272,27.604938271604947,0)" xlink:href="#ao"/><use transform="matrix(0.04938271604938272,0,0,0.04938271604938272,38.41975308641976,0)" xlink:href="#ai"/><use transform="matrix(0.04938271604938272,0,0,0.04938271604938272,48.296296296296305,0)" xlink:href="#at"/><use transform="matrix(0.04938271604938272,0,0,0.04938271604938272,53.23456790123457,0)" xlink:href="#at"/><use transform="matrix(0.04938271604938272,0,0,0.04938271604938272,58.17283950617284,0)" xlink:href="#ac"/><use transform="matrix(0.04938271604938272,0,0,0.04938271604938272,63.111111111111114,0)" xlink:href="#ao"/><use transform="matrix(0.04938271604938272,0,0,0.04938271604938272,73.92592592592594,0)" xlink:href="#as"/></g><path fill="#333" d="M67-93c0 74 22 123 53 168H70C40 30 18-18 18-93s22-123 52-168h50c-32 44-53 94-53 168" id="au"/><path fill="#333" d="M240-174c0 40-23 61-54 70L253 0h-59l-57-94H76V0H24v-248c93 4 217-23 216 74zM76-134c48-2 112 12 112-38 0-48-66-32-112-35v73" id="av"/><path fill="#333" d="M24 0v-248h195v40H76v63h132v40H76v65h150V0H24" id="aw"/><path fill="#333" d="M136-208V0H84v-208H4v-40h212v40h-80" id="ax"/><path fill="#333" d="M102-93c0 74-22 123-52 168H0C30 29 54-18 53-93c0-74-22-123-53-168h50c30 45 52 94 52 168" id="ay"/><g id="s"><use transform="matrix(0.04938271604938272,0,0,0.04938271604938272,0,0)" xlink:href="#au"/><use transform="matrix(0.04938271604938272,0,0,0.04938271604938272,5.8765432098765435,0)" xlink:href="#av"/><use transform="matrix(0.04938271604938272,0,0,0.04938271604938272,18.666666666666668,0)" xlink:href="#aw"/><use transform="matrix(0.04938271604938272,0,0,0.04938271604938272,30.518518518518523,0)" xlink:href="#ar"/><use transform="matrix(0.04938271604938272,0,0,0.04938271604938272,42.370370370370374,0)" xlink:href="#ax"/><use transform="matrix(0.04938271604938272,0,0,0.04938271604938272,53.18518518518519,0)" xlink:href="#ay"/></g><g id="t"><use transform="matrix(0.04938271604938272,0,0,0.04938271604938272,0,0)" xlink:href="#ar"/><use transform="matrix(0.04938271604938272,0,0,0.04938271604938272,11.851851851851853,0)" xlink:href="#ac"/><use transform="matrix(0.04938271604938272,0,0,0.04938271604938272,16.790123456790127,0)" xlink:href="#as"/><use transform="matrix(0.04938271604938272,0,0,0.04938271604938272,27.604938271604947,0)" xlink:href="#ao"/><use transform="matrix(0.04938271604938272,0,0,0.04938271604938272,38.41975308641976,0)" xlink:href="#ai"/><use transform="matrix(0.04938271604938272,0,0,0.04938271604938272,48.296296296296305,0)" xlink:href="#at"/><use transform="matrix(0.04938271604938272,0,0,0.04938271604938272,53.23456790123457,0)" xlink:href="#at"/><use transform="matrix(0.04938271604938272,0,0,0.04938271604938272,58.17283950617284,0)" xlink:href="#ac"/><use transform="matrix(0.04938271604938272,0,0,0.04938271604938272,63.111111111111114,0)" xlink:href="#ao"/><use transform="matrix(0.04938271604938272,0,0,0.04938271604938272,73.92592592592594,0)" xlink:href="#as"/></g><path fill="#333" d="M24-248c93 1 206-16 204 79-1 75-69 88-152 82V0H24v-248zm52 121c47 0 100 7 100-41 0-47-54-39-100-39v80" id="az"/><path fill="#333" d="M67-125c0 53 21 87 73 88 37 1 54-22 65-47l45 17C233-25 199 4 140 4 58 4 20-42 15-125 8-235 124-281 211-232c18 10 29 29 36 50l-46 12c-8-25-30-41-62-41-52 0-71 34-72 86" id="aA"/><g id="u"><use transform="matrix(0.04938271604938272,0,0,0.04938271604938272,0,0)" xlink:href="#au"/><use transform="matrix(0.04938271604938272,0,0,0.04938271604938272,5.8765432098765435,0)" xlink:href="#as"/><use transform="matrix(0.04938271604938272,0,0,0.04938271604938272,16.691358024691358,0)" xlink:href="#av"/><use transform="matrix(0.04938271604938272,0,0,0.04938271604938272,29.481481481481477,0)" xlink:href="#az"/><use transform="matrix(0.04938271604938272,0,0,0.04938271604938272,41.333333333333336,0)" xlink:href="#aA"/><use transform="matrix(0.04938271604938272,0,0,0.04938271604938272,54.12345679012346,0)" xlink:href="#ay"/></g><path fill="#333" d="M275 0h-61l-44-196L126 0H64L0-248h53L97-49l45-199h58l43 199 44-199h52" id="aB"/><path fill="#333" d="M135-194c52 0 70 43 70 98 0 56-19 99-73 100-30 1-46-15-58-35L72 0H24l1-261h50v104c11-23 29-37 60-37zM114-30c31 0 40-27 40-66 0-37-7-63-39-63s-41 28-41 65c0 36 8 64 40 64" id="aC"/><g id="v"><use transform="matrix(0.04938271604938272,0,0,0.04938271604938272,0,0)" xlink:href="#aB"/><use transform="matrix(0.04938271604938272,0,0,0.04938271604938272,16.39506172839506,0)" xlink:href="#ae"/><use transform="matrix(0.04938271604938272,0,0,0.04938271604938272,26.271604938271608,0)" xlink:href="#aC"/><use transform="matrix(0.04938271604938272,0,0,0.04938271604938272,37.08641975308642,0)" xlink:href="#av"/><use transform="matrix(0.04938271604938272,0,0,0.04938271604938272,49.876543209876544,0)" xlink:href="#ax"/><use transform="matrix(0.04938271604938272,0,0,0.04938271604938272,60.69135802469136,0)" xlink:href="#aA"/></g><g id="w"><use transform="matrix(0.04938271604938272,0,0,0.04938271604938272,0,0)" xlink:href="#ar"/><use transform="matrix(0.04938271604938272,0,0,0.04938271604938272,11.851851851851853,0)" xlink:href="#aq"/><use transform="matrix(0.04938271604938272,0,0,0.04938271604938272,17.728395061728396,0)" xlink:href="#ah"/><use transform="matrix(0.04938271604938272,0,0,0.04938271604938272,24.641975308641975,0)" xlink:href="#ae"/><use transform="matrix(0.04938271604938272,0,0,0.04938271604938272,34.51851851851852,0)" xlink:href="#ai"/><use transform="matrix(0.04938271604938272,0,0,0.04938271604938272,44.39506172839506,0)" xlink:href="#aj"/></g><path fill="#333" d="M76-54c-1 42 2 86-19 110H24C36 42 46 24 48 0H25v-54h51" id="aD"/><g id="x"><use transform="matrix(0.04938271604938272,0,0,0.04938271604938272,0,0)" xlink:href="#au"/><use transform="matrix(0.04938271604938272,0,0,0.04938271604938272,5.8765432098765435,0)" xlink:href="#ai"/><use transform="matrix(0.04938271604938272,0,0,0.04938271604938272,15.753086419753087,0)" xlink:href="#am"/><use transform="matrix(0.04938271604938272,0,0,0.04938271604938272,26.567901234567902,0)" xlink:href="#ad"/><use transform="matrix(0.04938271604938272,0,0,0.04938271604938272,37.38271604938272,0)" xlink:href="#ac"/><use transform="matrix(0.04938271604938272,0,0,0.04938271604938272,42.320987654320994,0)" xlink:href="#af"/><use transform="matrix(0.04938271604938272,0,0,0.04938271604938272,53.135802469135804,0)" xlink:href="#aD"/></g><path fill="#333" d="M128 0H69L1-190h53L99-40l48-150h52" id="aE"/><g id="y"><use transform="matrix(0.04938271604938272,0,0,0.04938271604938272,0,0)" xlink:href="#aE"/><use transform="matrix(0.04938271604938272,0,0,0.04938271604938272,9.876543209876544,0)" xlink:href="#ac"/><use transform="matrix(0.04938271604938272,0,0,0.04938271604938272,14.814814814814817,0)" xlink:href="#ad"/><use transform="matrix(0.04938271604938272,0,0,0.04938271604938272,25.629629629629633,0)" xlink:href="#ae"/><use transform="matrix(0.04938271604938272,0,0,0.04938271604938272,35.50617283950618,0)" xlink:href="#af"/><use transform="matrix(0.04938271604938272,0,0,0.04938271604938272,46.320987654320994,0)" xlink:href="#aD"/></g><g id="z"><use transform="matrix(0.04938271604938272,0,0,0.04938271604938272,0,0)" xlink:href="#ac"/><use transform="matrix(0.04938271604938272,0,0,0.04938271604938272,4.938271604938272,0)" xlink:href="#ao"/><use transform="matrix(0.04938271604938272,0,0,0.04938271604938272,15.753086419753087,0)" xlink:href="#ap"/><use transform="matrix(0.04938271604938272,0,0,0.04938271604938272,26.567901234567902,0)" xlink:href="#am"/><use transform="matrix(0.04938271604938272,0,0,0.04938271604938272,37.382716049382715,0)" xlink:href="#aq"/><use transform="matrix(0.04938271604938272,0,0,0.04938271604938272,43.25925925925926,0)" xlink:href="#ak"/><use transform="matrix(0.04938271604938272,0,0,0.04938271604938272,53.135802469135804,0)" xlink:href="#ay"/></g><path fill="#333" d="M127-220V0H93v-220H8v-28h204v28h-85" id="aF"/><path fill="#333" d="M232-93c-1 65-40 97-104 97C67 4 28-28 28-90v-158h33c8 89-33 224 67 224 102 0 64-133 71-224h33v155" id="aG"/><path fill="#333" d="M233-177c-1 41-23 64-60 70L243 0h-38l-65-103H63V0H30v-248c88 3 205-21 203 71zM63-129c60-2 137 13 137-47 0-61-80-42-137-45v92" id="aH"/><path fill="#333" d="M190 0L58-211 59 0H30v-248h39L202-35l-2-213h31V0h-41" id="aI"/><g id="A"><use transform="matrix(0.06172839506172839,0,0,0.06172839506172839,0,0)" xlink:href="#aF"/><use transform="matrix(0.06172839506172839,0,0,0.06172839506172839,13.518518518518517,0)" xlink:href="#aG"/><use transform="matrix(0.06172839506172839,0,0,0.06172839506172839,29.50617283950617,0)" xlink:href="#aH"/><use transform="matrix(0.06172839506172839,0,0,0.06172839506172839,45.49382716049382,0)" xlink:href="#aI"/></g><path fill="#333" d="M108 0H70L1-190h34L89-25l56-165h34" id="aJ"/><g id="B"><use transform="matrix(0.06172839506172839,0,0,0.06172839506172839,0,0)" xlink:href="#X"/><use transform="matrix(0.06172839506172839,0,0,0.06172839506172839,14.814814814814813,0)" xlink:href="#M"/><use transform="matrix(0.06172839506172839,0,0,0.06172839506172839,27.160493827160494,0)" xlink:href="#H"/><use transform="matrix(0.06172839506172839,0,0,0.06172839506172839,34.50617283950617,0)" xlink:href="#aJ"/><use transform="matrix(0.06172839506172839,0,0,0.06172839506172839,45.61728395061728,0)" xlink:href="#M"/><use transform="matrix(0.06172839506172839,0,0,0.06172839506172839,57.962962962962955,0)" xlink:href="#H"/></g><path fill="#333" d="M67-125c0 54 23 88 75 88 28 0 53-7 68-21v-34h-60v-39h108v91C232-14 192 4 140 4 58 4 20-42 15-125 8-236 126-280 215-234c19 10 29 26 37 47l-47 15c-11-23-29-39-63-39-53 1-75 33-75 86" id="aK"/><g id="C"><use transform="matrix(0.04938271604938272,0,0,0.04938271604938272,0,0)" xlink:href="#aK"/><use transform="matrix(0.04938271604938272,0,0,0.04938271604938272,13.827160493827162,0)" xlink:href="#ai"/><use transform="matrix(0.04938271604938272,0,0,0.04938271604938272,23.703703703703706,0)" xlink:href="#aj"/><use transform="matrix(0.04938271604938272,0,0,0.04938271604938272,39.50617283950618,0)" xlink:href="#ae"/></g><g id="D"><use transform="matrix(0.04938271604938272,0,0,0.04938271604938272,0,0)" xlink:href="#ak"/><use transform="matrix(0.04938271604938272,0,0,0.04938271604938272,9.876543209876544,0)" xlink:href="#ac"/><use transform="matrix(0.04938271604938272,0,0,0.04938271604938272,14.814814814814817,0)" xlink:href="#as"/><use transform="matrix(0.04938271604938272,0,0,0.04938271604938272,25.629629629629633,0)" xlink:href="#ao"/><use transform="matrix(0.04938271604938272,0,0,0.04938271604938272,36.44444444444445,0)" xlink:href="#ai"/><use transform="matrix(0.04938271604938272,0,0,0.04938271604938272,46.320987654320994,0)" xlink:href="#at"/><use transform="matrix(0.04938271604938272,0,0,0.04938271604938272,51.25925925925927,0)" xlink:href="#at"/><use transform="matrix(0.04938271604938272,0,0,0.04938271604938272,56.19753086419754,0)" xlink:href="#ac"/><use transform="matrix(0.04938271604938272,0,0,0.04938271604938272,61.13580246913581,0)" xlink:href="#ao"/><use transform="matrix(0.04938271604938272,0,0,0.04938271604938272,71.95061728395062,0)" xlink:href="#as"/></g><g id="E"><use transform="matrix(0.04938271604938272,0,0,0.04938271604938272,0,0)" xlink:href="#au"/><use transform="matrix(0.04938271604938272,0,0,0.04938271604938272,5.8765432098765435,0)" xlink:href="#as"/><use transform="matrix(0.04938271604938272,0,0,0.04938271604938272,16.691358024691358,0)" xlink:href="#av"/><use transform="matrix(0.04938271604938272,0,0,0.04938271604938272,29.481481481481477,0)" xlink:href="#az"/><use transform="matrix(0.04938271604938272,0,0,0.04938271604938272,41.333333333333336,0)" xlink:href="#aA"/><use transform="matrix(0.04938271604938272,0,0,0.04938271604938272,54.12345679012346,0)" xlink:href="#ay"/></g></defs></g></svg>